<?xml version="1.0" encoding="utf-8"?>
<!-- Generator: Adobe Illustrator 16.0.0, SVG Export Plug-In . SVG Version: 6.00 Build 0)  -->
<!DOCTYPE svg PUBLIC "-//W3C//DTD SVG 1.0//EN" "http://www.w3.org/TR/2001/REC-SVG-20010904/DTD/svg10.dtd" [
	<!ENTITY ns_flows "http://ns.adobe.com/Flows/1.0/">
	<!ENTITY ns_extend "http://ns.adobe.com/Extensibility/1.0/">
	<!ENTITY ns_ai "http://ns.adobe.com/AdobeIllustrator/10.0/">
	<!ENTITY ns_graphs "http://ns.adobe.com/Graphs/1.0/">
]>
<svg version="1.0" id="Слой_1" xmlns:x="&ns_extend;" xmlns:i="&ns_ai;" xmlns:graph="&ns_graphs;"
	 xmlns="http://www.w3.org/2000/svg" xmlns:xlink="http://www.w3.org/1999/xlink" xmlns:a="http://ns.adobe.com/AdobeSVGViewerExtensions/3.0/"
	 x="0px" y="0px" width="324.01px" height="63.5px" viewBox="0 0 324.01 63.5" enable-background="new 0 0 324.01 63.5"
	 xml:space="preserve">
<g id="Слой_x0020_1">
	<g id="_803157304">
		<path fill="#FFFFFF" d="M92.57,13.3v36.89h-7V13.3H92.57z M126.59,24.08h-6.7c0-2.17-0.42-3.63-1.3-4.39
			c-0.87-0.76-2.42-1.14-4.62-1.14h-1.95c-2.6,0-4.42,0.29-5.49,0.87c-1.01,0.65-1.52,1.99-1.52,3.99c0,1.28,0.16,2.26,0.43,2.92
			c0.29,0.67,0.79,1.16,1.48,1.46c0.7,0.31,1.71,0.5,3.05,0.59c2.36,0.09,4.62,0.18,6.73,0.25c2.11,0.09,3.95,0.4,5.56,0.9
			c1.61,0.52,2.89,1.52,3.84,2.96c0.96,1.44,1.44,3.54,1.44,6.25c0,1.68-0.11,3.14-0.32,4.42c-0.22,1.28-0.61,2.4-1.19,3.36
			c-0.58,0.94-1.43,1.71-2.58,2.31c-1.16,0.6-2.58,0.97-4.31,1.14c-1.59,0.22-3.9,0.32-6.91,0.32c-2.56,0-4.66-0.09-6.24-0.25
			c-1.61-0.16-3.01-0.58-4.24-1.25c-1.21-0.65-2.17-1.7-2.83-3.14c-0.67-1.46-1.01-3.39-1.01-5.81v-1.52h6.68
			c0,1.41,0.11,2.54,0.29,3.39c0.18,0.87,0.61,1.55,1.28,2.09c0.65,0.52,1.64,0.79,2.96,0.79c2.44,0.18,3.99,0.27,4.66,0.27
			c2.11,0,3.77-0.38,5.02-1.16c1.25-0.76,1.86-2.2,1.86-4.31c0-1.41-0.22-2.46-0.67-3.19c-0.45-0.7-1.05-1.19-1.81-1.43
			c-0.76-0.23-1.68-0.36-2.76-0.4c-1.08-0.02-2.36-0.04-3.81-0.05c-2.8-0.22-4.91-0.43-6.32-0.65s-2.67-0.67-3.79-1.35
			c-1.14-0.69-2-1.75-2.6-3.18c-0.6-1.44-0.88-3.38-0.88-5.83c0-1.55,0.16-2.92,0.49-4.12c0.32-1.19,0.83-2.2,1.52-3.03
			s1.61-1.46,2.71-1.93c1.12-0.45,2.46-0.74,4.02-0.85c1.93-0.22,3.88-0.33,5.83-0.33c3.27,0,5.81,0.16,7.65,0.49
			c1.82,0.33,3.34,1.17,4.55,2.56c1.21,1.39,1.8,3.57,1.8,6.53V24.08z M140.24,13.3v30.65h17v6.24h-24.13V13.3H140.24z
			 M162.38,32.18c0-3.74,0.13-6.66,0.4-8.81c0.25-2.15,0.83-4.01,1.73-5.58c0.9-1.55,2.35-2.76,4.37-3.57
			c2-0.83,4.73-1.25,8.16-1.25c2.56,0,4.75,0.11,6.59,0.34c1.82,0.23,3.48,0.72,4.98,1.46s2.69,1.86,3.59,3.38
			c0.9,1.52,1.43,3.54,1.55,6.03c0.07,1.08,0.11,2.74,0.11,4.98v2.47c0,4.04-0.13,7.15-0.38,9.28c-0.25,2.15-0.88,3.93-1.88,5.38
			c-1.01,1.43-2.62,2.49-4.82,3.2c-2.2,0.69-5.27,1.03-9.21,1.03c-2.83,0-5.22-0.22-7.13-0.65c-1.93-0.45-3.48-1.21-4.69-2.27
			s-2.09-2.54-2.65-4.42c-0.54-1.88-0.83-4.28-0.83-7.22c0-0.49,0.02-1.16,0.05-2C162.37,33.1,162.38,32.52,162.38,32.18z
			 M169.51,32.07c0,2.87,0.04,5.04,0.11,6.48c0.13,1.79,0.47,3.1,1.08,3.95c0.58,0.85,1.39,1.39,2.42,1.63
			c1.03,0.25,2.49,0.38,4.35,0.38c2.37,0,4.17-0.18,5.4-0.52c1.25-0.34,2.15-1.05,2.74-2.13c0.61-1.08,0.94-2.76,1.01-5.04
			c0.07-2,0.11-5,0.11-8.97c0-2.47-0.16-4.31-0.49-5.5s-1.03-2.04-2.09-2.56c-1.07-0.54-2.74-0.79-5.05-0.79
			c-2.74,0-4.76,0.2-6.06,0.58c-1.28,0.4-2.17,1.05-2.65,1.97c-0.47,0.92-0.74,2.38-0.78,4.39
			C169.55,27.9,169.53,29.96,169.51,32.07z M242.21,13.3v36.89h-6.88l0.2-31.06L224,50.19h-6.37l-11.75-30.97l0.33,30.97h-6.89V13.3
			h11.42l9.93,27.29h0.2l9.82-27.29H242.21z M253.69,43.41v6.79h-6.14v-6.79H253.69z M282.35,13.41h7.02V37.9
			c0,2.8-0.31,5.07-0.92,6.79c-0.61,1.73-1.71,3.07-3.32,4.01c-1.61,0.94-3.83,1.48-6.66,1.61c-0.87,0.07-2.24,0.11-4.11,0.11
			c-2.92,0-5.25-0.11-6.97-0.32c-1.71-0.22-3.23-0.7-4.55-1.5c-1.3-0.78-2.31-2-3-3.68c-0.67-1.66-1.01-3.9-1.01-6.68V13.41h7v24.83
			c0,1.71,0.23,3.05,0.72,3.95c0.47,0.9,1.21,1.52,2.2,1.84c1.01,0.31,2.36,0.47,4.1,0.47h2.47c1.75,0,3.1-0.13,4.06-0.38
			c0.97-0.25,1.7-0.78,2.2-1.59s0.76-2.04,0.76-3.65v-0.87V13.41z M323.79,13.3v6.03l-20.38,24.73l20.59,0.11v6.03h-29.33v-6.03
			l20.16-24.73l-19.29-0.11V13.3H323.79z"/>
		<path fill="#FFFFFF" d="M54.8,22.42l-6.03,5.94l3.79,3.74l-2.02,1.99l-3.77-3.74l-8.03,7.94l5.67,5.61l4.02-3.97l-1.9-1.88
			l-2,1.99l-1.9-1.86l4.01-3.97l5.69,5.59l-8.03,7.94l-7.56-7.47l-6.03,5.96l7.56,7.47l-6.03,5.96l-1.9-1.88l4.02-3.97L23.03,42.6
			l-2,1.99l9.44,9.35l-2,1.99l-9.46-9.35l-2,1.99l15.12,14.94l10.04-9.93l-3.79-3.74l2.02-1.99l3.77,3.74l20.07-19.83l-1.88-1.88
			l-8.03,7.94l-1.9-1.86l8.03-7.94L54.8,22.42z M54.56,30.11l-1.9-1.86l2-1.99l1.9,1.86L54.56,30.11z M36.49,47.97l-1.9-1.88l2-1.99
			l1.9,1.88L36.49,47.97z M19.24,38.86L6.03,25.79l-2.02,1.99l11.35,11.21l-2.02,1.99L2,29.76l-2,1.99l15.11,14.94l2.02-1.99
			l-1.9-1.88L19.24,38.86z M25.27,32.92l12.06-11.91l-9.46-9.33l-8.03,7.92l5.67,5.61l6.03-5.96l1.9,1.86l-8.03,7.94l-9.46-9.33
			l2.02-1.99l-1.9-1.86l-4.02,3.95L25.27,32.92z M25.63,21.35l-1.9-1.86l4.02-3.97l1.88,1.88L25.63,21.35z M26.1,5.96L45,24.62
			l-2,1.99l-3.79-3.74l-8.03,7.94l3.79,3.74l-2.02,1.99l-3.77-3.74l-2,1.99l3.77,3.74l-2,1.99l-18.9-18.68l-2,1.99l20.77,20.54
			l9.73-9.55l10.36-10.29L28.1,3.97L26.1,5.96z M50.9,22.53l2-1.99L32.13,0L30.1,1.99L50.9,22.53z M39.09,26.73l1.88,1.86
			l-4.01,3.97l-1.9-1.86L39.09,26.73z M23.97,11.79l2-1.99l-1.88-1.86l-2,1.99L23.97,11.79z M19.96,15.76l2-1.99l-1.9-1.86l-2,1.99
			L19.96,15.76z"/>
	</g>
</g>
</svg>
